<svg width="21" height="22" viewBox="0 0 21 22" fill="none" xmlns="http://www.w3.org/2000/svg">
<path fill-rule="evenodd" clip-rule="evenodd" d="M14.2175 1.80607C15.6455 0.378018 17.9608 0.37802 19.3889 1.80607C20.8169 3.23412 20.8169 5.54945 19.3889 6.97749L6.77479 19.5916C6.75878 19.6076 6.74291 19.6235 6.72717 19.6392C6.49326 19.8735 6.28693 20.0802 6.04177 20.2418C5.82623 20.384 5.59247 20.4963 5.34683 20.5758C5.06744 20.6663 4.77716 20.6983 4.44807 20.7346C4.42594 20.737 4.40363 20.7395 4.38114 20.742L1.14853 21.1012C0.860147 21.1332 0.572831 21.0324 0.367656 20.8273C0.162481 20.6221 0.061696 20.3348 0.093739 20.0464L0.452917 16.8138C0.455417 16.7913 0.457879 16.769 0.460322 16.7468C0.496619 16.4178 0.528638 16.1275 0.619083 15.8481C0.698602 15.6025 0.810953 15.3687 0.953087 15.1532C1.11475 14.908 1.32142 14.7017 1.55571 14.4677C1.57147 14.452 1.58736 14.4361 1.60337 14.4201L14.2175 1.80607ZM18.0381 3.15686C17.3561 2.47484 16.2503 2.47484 15.5683 3.15686L2.95417 15.7709C2.64612 16.079 2.58894 16.1425 2.54787 16.2048C2.50049 16.2767 2.46304 16.3546 2.43654 16.4364C2.41356 16.5074 2.39966 16.5918 2.35155 17.0247L2.12422 19.0707L4.17018 18.8434C4.60315 18.7953 4.68751 18.7814 4.75848 18.7584C4.84036 18.7319 4.91828 18.6944 4.99012 18.6471C5.0524 18.606 5.11595 18.5488 5.424 18.2408L18.0381 5.6267C18.7201 4.94467 18.7201 3.83889 18.0381 3.15686Z" fill="#4688F1"/>
</svg>
