<svg width="238" height="297" viewBox="0 0 238 297" fill="none" xmlns="http://www.w3.org/2000/svg">
<path fill-rule="evenodd" clip-rule="evenodd" d="M118.667 0C53.1289 0 0 59.3717 0 126.083C0 192.272 37.8743 264.217 96.9665 291.838C110.742 298.276 126.591 298.276 140.367 291.838C199.459 264.217 237.333 192.272 237.333 126.083C237.333 59.3717 184.204 0 118.667 0ZM118.667 148.333C135.051 148.333 148.333 135.051 148.333 118.667C148.333 102.282 135.051 89 118.667 89C102.282 89 89 102.282 89 118.667C89 135.051 102.282 148.333 118.667 148.333Z" fill="#A359FF"/>
</svg>
